{
  "accessors": [
    {
      "bufferView": 2,
      "componentType": 5126,
      "count": 1524,
      "max": [
        0.07819606363773346,
        0.09289415180683136,
        1.667248010635376
      ],
      "min": [
        -0.08014862984418869,
        -0.08557687699794769,
        1.4945930242538452
      ],
      "type": "VEC3"
    },
    {
      "bufferView": 2,
      "byteOffset": 18288,
      "componentType": 5126,
      "count": 1524,
      "max": [
        0.9996244311332703,
        0.9991084933280945,
        0.999938428401947
      ],
      "min": [
        -0.9996434450149536,
        -0.9994614124298096,
        -0.9982582926750183
      ],
      "type": "VEC3"
    },
    {
      "bufferView": 3,
      "componentType": 5126,
      "count": 1524,
      "max": [
        0.9999384880065918,
        0.9966819882392883,
        0.9998731017112732,
        1.0
      ],
      "min": [
        -0.9969450831413269,
        -0.9836122989654541,
        -0.9975218772888184,
        1.0
      ],
      "type": "VEC4"
    },
    {
      "bufferView": 1,
      "componentType": 5126,
      "count": 1524,
      "max": [
        -15.010740280151367,
        16.97208023071289
      ],
      "min": [
        -15.984040260314941,
        16.009769439697266
      ],
      "type": "VEC2"
    },
    {
      "bufferView": 0,
      "componentType": 5125,
      "count": 8532,
      "type": "SCALAR"
    },
    {
      "bufferView": 2,
      "byteOffset": 36576,
      "componentType": 5126,
      "count": 3556,
      "max": [
        0.10024920105934143,
        0.12028250098228455,
        1.6539030075073242
      ],
      "min": [
        -0.10024920105934143,
        -0.09335768967866898,
        1.3563300371170044
      ],
      "type": "VEC3"
    },
    {
      "bufferView": 2,
      "byteOffset": 79248,
      "componentType": 5126,
      "count": 3556,
      "max": [
        0.9996464252471924,
        0.9999040961265564,
        0.9994048476219177
      ],
      "min": [
        -0.9996464252471924,
        -0.9999949932098389,
        -0.9998998045921326
      ],
      "type": "VEC3"
    },
    {
      "bufferView": 3,
      "byteOffset": 24384,
      "componentType": 5126,
      "count": 3556,
      "max": [
        1.0,
        0.9998414516448975,
        0.9994093179702759,
        1.0
      ],
      "min": [
        -1.0,
        -0.9992607831954956,
        -0.9957829117774963,
        -1.0
      ],
      "type": "VEC4"
    },
    {
      "bufferView": 1,
      "byteOffset": 12192,
      "componentType": 5126,
      "count": 3556,
      "max": [
        -15.00780963897705,
        16.997419357299805
      ],
      "min": [
        -15.995260238647461,
        16.0029296875
      ],
      "type": "VEC2"
    },
    {
      "bufferView": 0,
      "byteOffset": 34128,
      "componentType": 5125,
      "count": 19422,
      "type": "SCALAR"
    },
    {
      "bufferView": 2,
      "byteOffset": 121920,
      "componentType": 5126,
      "count": 7232,
      "max": [
        0.5957602858543396,
        0.14406639337539673,
        1.4186489582061768
      ],
      "min": [
        -0.5957595109939575,
        -0.15592460334300995,
        -0.0001999498053919524
      ],
      "type": "VEC3"
    },
    {
      "bufferView": 2,
      "byteOffset": 208704,
      "componentType": 5126,
      "count": 7232,
      "max": [
        0.9999691247940063,
        0.9999461770057678,
        0.9996877908706665
      ],
      "min": [
        -0.9999693036079407,
        -0.9999688267707825,
        -0.9999964237213135
      ],
      "type": "VEC3"
    },
    {
      "bufferView": 3,
      "byteOffset": 81280,
      "componentType": 5126,
      "count": 7232,
      "max": [
        1.0,
        0.9997405409812927,
        0.9986463785171509,
        1.0
      ],
      "min": [
        -1.0,
        -0.9999919533729553,
        -0.9987537860870361,
        -1.0
      ],
      "type": "VEC4"
    },
    {
      "bufferView": 1,
      "byteOffset": 40640,
      "componentType": 5126,
      "count": 7232,
      "max": [
        -15.04833984375,
        16.99748992919922
      ],
      "min": [
        -15.988579750061035,
        16.004880905151367
      ],
      "type": "VEC2"
    },
    {
      "bufferView": 0,
      "byteOffset": 111816,
      "componentType": 5125,
      "count": 38532,
      "type": "SCALAR"
    }
  ],
  "asset": {
    "extras": {
      "author": "EWTube0 (https://sketchfab.com/EWTube0)",
      "license": "CC-BY-4.0 (http://creativecommons.org/licenses/by/4.0/)",
      "source": "https://sketchfab.com/3d-models/fortnite-spiderman-no-way-home-peter-parker-c46b9c3beeb347cda6db0b11deef2602",
      "title": "Fortnite: Spiderman No Way Home Peter Parker"
    },
    "generator": "Sketchfab-12.68.0",
    "version": "2.0"
  },
  "bufferViews": [
    {
      "buffer": 0,
      "byteLength": 265944,
      "name": "floatBufferViews",
      "target": 34963
    },
    {
      "buffer": 0,
      "byteLength": 98496,
      "byteOffset": 265944,
      "byteStride": 8,
      "name": "floatBufferViews",
      "target": 34962
    },
    {
      "buffer": 0,
      "byteLength": 295488,
      "byteOffset": 364440,
      "byteStride": 12,
      "name": "floatBufferViews",
      "target": 34962
    },
    {
      "buffer": 0,
      "byteLength": 196992,
      "byteOffset": 659928,
      "byteStride": 16,
      "name": "floatBufferViews",
      "target": 34962
    }
  ],
  "buffers": [
    {
      "byteLength": 856920,
      "uri": "scene.bin"
    }
  ],
  "images": [
    {
      "uri": "textures/Model001_Material001_baseColor.png"
    },
    {
      "uri": "textures/Model001_Material001_normal.png"
    },
    {
      "uri": "textures/Model001_Material002_baseColor.png"
    },
    {
      "uri": "textures/Model001_Material002_normal.png"
    },
    {
      "uri": "textures/Model001_Material003_baseColor.png"
    },
    {
      "uri": "textures/Model001_Material003_normal.png"
    }
  ],
  "materials": [
    {
      "doubleSided": true,
      "name": "Model001_Material001",
      "normalTexture": {
        "index": 1
      },
      "pbrMetallicRoughness": {
        "baseColorTexture": {
          "index": 0
        },
        "metallicFactor": 0.0
      }
    },
    {
      "doubleSided": true,
      "name": "Model001_Material002",
      "normalTexture": {
        "index": 3
      },
      "pbrMetallicRoughness": {
        "baseColorTexture": {
          "index": 2
        },
        "metallicFactor": 0.0
      }
    },
    {
      "doubleSided": true,
      "name": "Model001_Material003",
      "normalTexture": {
        "index": 5
      },
      "pbrMetallicRoughness": {
        "baseColorTexture": {
          "index": 4
        },
        "metallicFactor": 0.0
      }
    }
  ],
  "meshes": [
    {
      "name": "Object_0",
      "primitives": [
        {
          "attributes": {
            "NORMAL": 1,
            "POSITION": 0,
            "TANGENT": 2,
            "TEXCOORD_0": 3
          },
          "indices": 4,
          "material": 0,
          "mode": 4
        }
      ]
    },
    {
      "name": "Object_1",
      "primitives": [
        {
          "attributes": {
            "NORMAL": 6,
            "POSITION": 5,
            "TANGENT": 7,
            "TEXCOORD_0": 8
          },
          "indices": 9,
          "material": 1,
          "mode": 4
        }
      ]
    },
    {
      "name": "Object_2",
      "primitives": [
        {
          "attributes": {
            "NORMAL": 11,
            "POSITION": 10,
            "TANGENT": 12,
            "TEXCOORD_0": 13
          },
          "indices": 14,
          "material": 2,
          "mode": 4
        }
      ]
    }
  ],
  "nodes": [
    {
      "children": [
        1
      ],
      "matrix": [
        1.0,
        0.0,
        0.0,
        0.0,
        0.0,
        2.220446049250313e-16,
        -1.0,
        0.0,
        0.0,
        1.0,
        2.220446049250313e-16,
        0.0,
        0.0,
        0.0,
        0.0,
        1.0
      ],
      "name": "Sketchfab_model"
    },
    {
      "children": [
        2,
        3,
        4
      ],
      "name": "Fortnite Spiderman No Way Home Peter Parker.obj.cleaner.materialmerger.gles"
    },
    {
      "mesh": 0,
      "name": "Object_2"
    },
    {
      "mesh": 1,
      "name": "Object_3"
    },
    {
      "mesh": 2,
      "name": "Object_4"
    }
  ],
  "samplers": [
    {
      "magFilter": 9729,
      "minFilter": 9987,
      "wrapS": 10497,
      "wrapT": 10497
    }
  ],
  "scene": 0,
  "scenes": [
    {
      "name": "Sketchfab_Scene",
      "nodes": [
        0
      ]
    }
  ],
  "textures": [
    {
      "sampler": 0,
      "source": 0
    },
    {
      "sampler": 0,
      "source": 1
    },
    {
      "sampler": 0,
      "source": 2
    },
    {
      "sampler": 0,
      "source": 3
    },
    {
      "sampler": 0,
      "source": 4
    },
    {
      "sampler": 0,
      "source": 5
    }
  ]
}
